<svg width="208" height="219" viewBox="0 0 208 219" fill="none" xmlns="http://www.w3.org/2000/svg">
<g filter="url(#filter0_d_2403_755)">
<circle cx="104" cy="111" r="100" fill="#68B738"/>
<g clip-path="url(#clip0_2403_755)">
<path d="M143.68 0H142.92C141.636 0.725875 140.614 1.83883 140 3.18C138.875 5.34423 138.009 7.63331 137.42 10C137.294 10.7116 136.934 11.3611 136.398 11.8462C135.863 12.3313 135.181 12.6246 134.46 12.68C132.256 13.06 130.167 13.9386 128.355 15.2489C126.542 16.5591 125.052 18.2663 124 20.24C122.553 22.8026 121.316 25.478 120.3 28.24C117.46 35.6 115.28 43.2 112.6 50.62C111.34 54 111.28 54 107.48 54C102.94 54 103.26 53.3 103.2 58.3C103.2 59.88 103.68 60.68 105.36 60.6C105.88 60.6 106.66 60.34 106.86 61.02C107.06 61.7 106.38 62 105.98 62.4C103.609 64.8073 100.607 66.4984 97.32 67.28C93.52 68.3 89.64 69.1 85.94 70.34C76.44 73.52 67.66 77.96 60.82 85.48C56.8206 90.1507 53.6177 95.4483 51.34 101.16C44 118.44 40.44 136.64 37.68 155.02C36.38 163.64 35.46 172.3 34.76 181.02C34.4 185.3 34 189.64 34 194H100.66C100.771 193.12 100.61 192.227 100.2 191.44C99.5589 189.844 98.5171 188.441 97.1753 187.365C95.8335 186.29 94.237 185.578 92.54 185.3C91.14 184.98 90.98 184.56 91.84 183.46C93.2427 181.588 94.318 179.492 95.02 177.26C98.28 167.64 99.54 157.6 101.12 147.66C102.013 140.068 104.348 132.716 108 126C110.849 121.057 114.649 116.727 119.18 113.26C120.84 112 120.9 112 121.18 114.14C121.38 115.56 121.42 117.02 121.52 118.46C122.12 127.909 122 137.39 121.16 146.82C120.405 154.13 120.304 161.492 120.86 168.82C121.655 177.327 123.174 185.751 125.4 194H152C151.653 191.835 150.656 189.826 149.142 188.241C147.627 186.655 145.667 185.567 143.52 185.12C141.013 184.722 138.45 184.858 136 185.52C134.8 185.8 134.3 185.52 134.2 184.22C133.373 173.632 134.046 162.98 136.2 152.58C138.868 140.574 140.91 128.438 142.32 116.22C142.845 111.286 144.398 106.517 146.88 102.22C149.26 97.98 151.34 93.58 153.68 89.32C154.609 87.771 155.168 86.0286 155.314 84.2282C155.46 82.4279 155.188 80.6182 154.52 78.94C153.98 77.52 153.46 76.08 152.8 74.72C150.8 70.82 148.8 66.96 146.96 63.02C145.98 61.02 146.2 60.78 148.38 60.72C151.64 60.72 151.64 60.72 151.7 57.44C151.7 57 151.7 56.56 151.7 56.12C151.7 54.74 151.18 53.98 149.7 54.12C148.7 54.12 147.7 54.12 146.66 54.12C145.28 54.12 144.88 53.54 145.22 52.12C145.895 49.8116 147.222 47.7473 149.042 46.1755C150.862 44.6037 153.098 43.5912 155.48 43.26C159.911 42.8758 164.376 43.1657 168.72 44.12C169.221 44.2779 169.765 44.2322 170.232 43.9927C170.7 43.7531 171.055 43.3391 171.22 42.84C172.02 40.84 172.9 38.84 173.8 36.84C174.004 36.4852 174.094 36.0763 174.058 35.6686C174.023 35.2608 173.863 34.8739 173.6 34.56C167.2 26.44 160.26 18.86 150.8 14C150.343 13.8033 149.942 13.4952 149.635 13.1039C149.328 12.7127 149.123 12.2506 149.04 11.76C148.505 8.90102 147.653 6.11051 146.5 3.44C145.959 2.01723 144.969 0.809563 143.68 0V0Z" fill="black"/>
</g>
</g>
<defs>
<filter id="filter0_d_2403_755" x="0" y="0" width="208" height="219" filterUnits="userSpaceOnUse" color-interpolation-filters="sRGB">
<feFlood flood-opacity="0" result="BackgroundImageFix"/>
<feColorMatrix in="SourceAlpha" type="matrix" values="0 0 0 0 0 0 0 0 0 0 0 0 0 0 0 0 0 0 127 0" result="hardAlpha"/>
<feOffset dy="4"/>
<feGaussianBlur stdDeviation="2"/>
<feComposite in2="hardAlpha" operator="out"/>
<feColorMatrix type="matrix" values="0 0 0 0 0 0 0 0 0 0 0 0 0 0 0 0 0 0 0.25 0"/>
<feBlend mode="normal" in2="BackgroundImageFix" result="effect1_dropShadow_2403_755"/>
<feBlend mode="normal" in="SourceGraphic" in2="effect1_dropShadow_2403_755" result="shape"/>
</filter>
<clipPath id="clip0_2403_755">
<rect width="140" height="194" fill="white" transform="translate(34)"/>
</clipPath>
</defs>
</svg>
